<svg width="28" height="28" viewBox="0 0 28 28" fill="none" xmlns="http://www.w3.org/2000/svg">
<path d="M13.0339 12.2702L18.1836 7.12044C18.2747 7.04449 18.3431 6.94574 18.3887 6.82422C18.4494 6.70269 18.4798 6.57357 18.4798 6.43685C18.4798 6.16341 18.3811 5.93555 18.1836 5.75325C18.0013 5.55577 17.781 5.45703 17.5228 5.45703C17.3709 5.45703 17.2342 5.48741 17.1126 5.54818C17.0063 5.59375 16.9076 5.66211 16.8164 5.75325L11.6667 10.903L6.51693 5.75325C6.42578 5.6773 6.31945 5.61653 6.19792 5.57096C6.09158 5.5102 5.97765 5.47982 5.85612 5.47982C5.58268 5.47982 5.34722 5.57856 5.14974 5.77604C4.96745 5.95833 4.8763 6.1862 4.8763 6.45963C4.8763 6.58116 4.89909 6.70269 4.94466 6.82422C4.99023 6.94574 5.05859 7.05208 5.14974 7.14323L10.2995 12.2702L5.14974 17.4199C5.05859 17.5111 4.98264 17.6174 4.92188 17.7389C4.8763 17.8605 4.85352 17.9896 4.85352 18.1263C4.85352 18.3997 4.94466 18.6352 5.12695 18.8327C5.32444 19.015 5.5523 19.1061 5.81055 19.1061C5.96246 19.1061 6.09158 19.0833 6.19792 19.0378C6.31945 18.977 6.42578 18.901 6.51693 18.8099L11.6667 13.6602L16.8164 18.7871C16.9076 18.8783 17.0063 18.9466 17.1126 18.9922C17.2342 19.0378 17.3557 19.0605 17.4772 19.0605C17.7507 19.0605 17.9785 18.9694 18.1608 18.7871C18.3583 18.5896 18.457 18.3618 18.457 18.1035C18.457 17.9668 18.4342 17.8453 18.3887 17.7389C18.3431 17.6174 18.2747 17.5111 18.1836 17.4199L13.0339 12.2702Z" fill="#526484"/>
</svg>
